# xmcd
#
# Track frame offsets:
#	150
#	12500
#	28077
#	41148
#	57634
#	71945
#	89449
#	108917
#	118348
#	137276
#	149045
#	162990
#	174812
#	189190
#	202441
#	215088
#	229973
#	242507
#	264058
#	277982
#	294919
#	310114
#	324421
#	341518
#
# Disc length: 4704 seconds
#
# Revision: 1
# Processed by: cddbd v1.5.2PL0 Copyright (c) Steve Scherf et al.
# Submitted via: audiograbber 1.83.01
#
DISCID=6e125e18
DTITLE=Western Heart - Western Heart 034 Western Heart
DYEAR=1900
DGENRE=
TTITLE0=Working Man Blues  - Jerry Hill
TTITLE1=Clean Up  - Lolene
TTITLE2=Angel To Me  - Dough Hamilton
TTITLE3=Roseo Eyes  - Kel Anne Brandt
TTITLE4=Please Don앖 Let Me Let You Go  - Paul and Helen Mateki
TTITLE5=Cryin Shame  - David Cline
TTITLE6=Nobodys Child - Joy Adams
TTITLE7=Creole Rose  - Hal Willis
TTITLE8=Riding In A Pumpkin  - Paula James
TTITLE9=You았e Got Me Running - Robin Sisco
TTITLE10=Becky An Shot Her Man  - Aaron Noble
TTITLE11=Best Time Yet  - Billy Michael Davis
TTITLE12=Redneck Rock앑roll - Ken Johnson
TTITLE13=Can앖 Let You Go  - Joanne and Haley Myrol
TTITLE14=Making Melody  - Andy Rivers
TTITLE15=That압 Gto - Chryl K Warner
TTITLE16=Live For Now  - Tommy The Uk Cowboy
TTITLE17=Shooting Star  - Richard Olsen
TTITLE18=I았e Never Seen An Angel Fly  - Billy Jack
TTITLE19=The Picture  - Ted Snyder
TTITLE20=Having A Blast - David Cline
TTITLE21=That압 The Way I Remember Being Near You  - J Gale Kilgore
TTITLE22=One Wore Blue and One Wore Gray  - Bill Barnes
TTITLE23=I Love You  - Kay Seamayor
EXTD=
EXTT0=
EXTT1=
EXTT2=
EXTT3=
EXTT4=
EXTT5=
EXTT6=
EXTT7=
EXTT8=
EXTT9=
EXTT10=
EXTT11=
EXTT12=
EXTT13=
EXTT14=
EXTT15=
EXTT16=
EXTT17=
EXTT18=
EXTT19=
EXTT20=
EXTT21=
EXTT22=
EXTT23=
PLAYORDER=
